<svg width="800" height="553" viewBox="0 0 800 553" fill="none" xmlns="http://www.w3.org/2000/svg">
<path d="M785.854 0H13.6129C9.97271 0.0353855 6.49515 1.5132 3.94313 4.10928C1.3911 6.70536 -0.0270301 10.2077 -0.00011196 13.848V538.508C-0.0211718 542.144 1.39977 545.64 3.95136 548.23C6.50296 550.82 9.97718 552.293 13.6129 552.327H785.854C789.49 552.293 792.964 550.82 795.515 548.23C798.067 545.64 799.488 542.144 799.467 538.508V13.848C799.494 10.208 798.076 6.70601 795.524 4.10999C792.973 1.51396 789.496 0.0359117 785.856 0H785.854Z" fill="#090814"/>
<path d="M763.533 3.16406H14.9329C11.4301 3.17068 8.07303 4.56668 5.59833 7.0457C3.12362 9.52472 1.73343 12.8842 1.73291 16.3871V517.394C1.73794 520.893 3.13028 524.248 5.60468 526.722C8.07907 529.197 11.4336 530.589 14.9329 530.594H763.533C767.032 530.589 770.387 529.197 772.861 526.722C775.336 524.248 776.728 520.893 776.733 517.394V16.3881C776.733 12.8867 775.344 9.52839 772.871 7.04958C770.398 4.57076 767.043 3.17379 763.542 3.16505L763.533 3.16406Z" fill="white"/>
<path d="M256.915 360.353H51.3778C50.3687 360.352 49.4012 359.951 48.6877 359.237C47.9742 358.524 47.5728 357.556 47.5718 356.547V305.564C47.5731 304.555 47.9745 303.588 48.688 302.874C49.4015 302.161 50.3688 301.759 51.3778 301.758H256.915C257.924 301.759 258.891 302.161 259.605 302.874C260.318 303.588 260.719 304.555 260.721 305.564V356.544C260.719 357.553 260.318 358.52 259.605 359.234C258.891 359.947 257.924 360.349 256.915 360.35V360.353ZM51.3778 303.279C50.7717 303.279 50.1903 303.519 49.7614 303.948C49.3325 304.376 49.0913 304.957 49.0908 305.563V356.544C49.0913 357.15 49.3321 357.73 49.7603 358.159C50.1886 358.587 50.7692 358.828 51.3748 358.828H256.915C257.52 358.828 258.101 358.587 258.529 358.159C258.957 357.73 259.198 357.15 259.199 356.544V305.563C259.198 304.957 258.957 304.377 258.529 303.949C258.101 303.52 257.52 303.28 256.915 303.279H51.3778Z" fill="#E6E6E6"/>
<path d="M114.943 320.118C114.245 320.131 113.581 320.418 113.092 320.916C112.603 321.415 112.33 322.085 112.33 322.782C112.33 323.48 112.603 324.15 113.092 324.649C113.581 325.147 114.245 325.433 114.943 325.447H240.543C241.245 325.467 241.926 325.208 242.439 324.728C242.952 324.248 243.254 323.585 243.28 322.883C243.307 322.181 243.055 321.497 242.58 320.98C242.105 320.463 241.445 320.154 240.743 320.121H240.626H114.942L114.943 320.118Z" fill="#E6E6E6"/>
<path d="M114.943 336.102C114.236 336.102 113.558 336.383 113.059 336.882C112.559 337.382 112.278 338.06 112.278 338.767C112.278 339.473 112.559 340.151 113.059 340.651C113.558 341.15 114.236 341.431 114.943 341.431H240.543C241.245 341.451 241.926 341.192 242.439 340.712C242.952 340.232 243.254 339.569 243.28 338.867C243.307 338.165 243.055 337.481 242.58 336.964C242.105 336.447 241.444 336.138 240.743 336.105H240.626H114.942L114.943 336.102Z" fill="#E6E6E6"/>
<path d="M184.44 267.948C183.954 267.95 183.476 267.816 183.061 267.563C182.646 267.31 182.31 266.946 182.089 266.513C180.21 262.84 177.616 259.579 174.46 256.921C171.303 254.264 167.648 252.264 163.708 251.039C162.095 250.55 160.448 250.177 158.782 249.924L158.442 249.873L175.972 195.065L176.272 195.075C210.328 204.329 229.813 231.623 234.972 239.768C235.168 240.079 235.298 240.428 235.351 240.793C235.404 241.157 235.38 241.529 235.281 241.883C235.182 242.238 235.009 242.568 234.775 242.852C234.54 243.135 234.249 243.367 233.919 243.531L185.624 267.668C185.257 267.852 184.851 267.948 184.44 267.948Z" fill="#F2F2F2"/>
<path d="M155.023 278.371C157.611 278.371 159.71 276.273 159.71 273.684C159.71 271.096 157.611 268.997 155.023 268.997C152.434 268.997 150.336 271.096 150.336 273.684C150.336 276.273 152.434 278.371 155.023 278.371Z" fill="#090814"/>
<path d="M123.564 267.879C123.135 267.878 122.713 267.773 122.334 267.572L74.319 242.242C74.0005 242.074 73.7198 241.842 73.4942 241.562C73.2686 241.281 73.1029 240.957 73.0074 240.61C72.9118 240.262 72.8884 239.899 72.9385 239.543C72.9887 239.186 73.1114 238.843 73.299 238.536C79.7127 228.256 87.8348 219.146 97.315 211.6C113.896 198.458 132.758 191.865 153.371 191.976C161.102 192.011 168.796 193.053 176.258 195.076L176.558 195.156L159.024 249.956L158.777 249.919C157.198 249.681 155.605 249.539 154.009 249.496C136.168 248.996 128.437 261.141 125.941 266.387C125.791 266.705 125.577 266.989 125.313 267.222C125.049 267.454 124.74 267.631 124.406 267.74C124.136 267.83 123.854 267.876 123.569 267.877L123.564 267.879Z" fill="#5C5C5C"/>
<path d="M176.191 195.357L163.791 250.757C162.164 250.263 160.504 249.887 158.823 249.632L176.183 195.355L176.191 195.357Z" fill="#090814"/>
<path d="M77.0209 346.727C85.8497 346.727 93.0069 339.57 93.0069 330.741C93.0069 321.912 85.8497 314.755 77.0209 314.755C68.1921 314.755 61.0349 321.912 61.0349 330.741C61.0349 339.57 68.1921 346.727 77.0209 346.727Z" fill="#5C5C5C"/>
<path d="M74.739 339.457C74.4499 339.457 74.1647 339.39 73.9061 339.26C73.6475 339.131 73.4225 338.943 73.249 338.712L68.6801 332.62C68.3898 332.224 68.2673 331.73 68.3393 331.244C68.4112 330.759 68.6719 330.322 69.0645 330.027C69.4572 329.733 69.9502 329.605 70.4364 329.672C70.9225 329.739 71.3626 329.995 71.661 330.385L74.65 334.37L82.327 322.855C82.6026 322.447 83.0283 322.165 83.5111 322.07C83.9938 321.975 84.4945 322.075 84.9038 322.348C85.3132 322.621 85.598 323.045 85.696 323.527C85.794 324.009 85.6973 324.511 85.427 324.922L76.289 338.628C76.1235 338.876 75.901 339.081 75.64 339.225C75.379 339.369 75.0871 339.449 74.789 339.457H74.739Z" fill="white"/>
<path d="M502.503 360.353H296.966C295.957 360.352 294.989 359.951 294.276 359.237C293.562 358.524 293.161 357.556 293.16 356.547V305.564C293.161 304.555 293.563 303.588 294.276 302.874C294.99 302.161 295.957 301.759 296.966 301.758H502.503C503.512 301.759 504.479 302.161 505.193 302.874C505.906 303.588 506.308 304.555 506.309 305.564V356.544C506.308 357.553 505.906 358.52 505.193 359.234C504.479 359.947 503.512 360.349 502.503 360.35V360.353ZM296.966 303.279C296.36 303.279 295.778 303.519 295.35 303.948C294.921 304.376 294.679 304.957 294.679 305.563V356.544C294.679 357.15 294.92 357.73 295.348 358.159C295.777 358.587 296.357 358.828 296.963 358.828H502.503C503.108 358.828 503.689 358.587 504.117 358.159C504.546 357.73 504.786 357.15 504.787 356.544V305.563C504.786 304.957 504.546 304.377 504.117 303.949C503.689 303.52 503.108 303.28 502.503 303.279H296.966Z" fill="#E6E6E6"/>
<path d="M360.531 320.118C359.833 320.131 359.169 320.418 358.68 320.916C358.191 321.415 357.917 322.085 357.917 322.782C357.917 323.48 358.191 324.15 358.68 324.649C359.169 325.147 359.833 325.433 360.531 325.447H486.131C486.833 325.467 487.514 325.208 488.027 324.728C488.54 324.248 488.842 323.585 488.868 322.883C488.895 322.181 488.643 321.497 488.168 320.98C487.693 320.463 487.032 320.154 486.331 320.121H486.214H360.53L360.531 320.118Z" fill="#E6E6E6"/>
<path d="M360.531 336.102C359.824 336.102 359.147 336.383 358.647 336.882C358.147 337.382 357.866 338.06 357.866 338.767C357.866 339.473 358.147 340.151 358.647 340.651C359.147 341.15 359.824 341.431 360.531 341.431H486.131C486.833 341.451 487.514 341.192 488.027 340.712C488.54 340.232 488.842 339.569 488.868 338.867C488.895 338.165 488.643 337.481 488.168 336.964C487.693 336.447 487.033 336.138 486.331 336.105H486.214H360.53L360.531 336.102Z" fill="#E6E6E6"/>
<path d="M430.028 267.948C429.542 267.95 429.064 267.816 428.649 267.563C428.234 267.31 427.898 266.946 427.677 266.513C425.798 262.84 423.204 259.579 420.048 256.921C416.891 254.264 413.236 252.264 409.296 251.039C407.683 250.55 406.036 250.177 404.37 249.924L404.03 249.873L421.56 195.065L421.86 195.075C455.916 204.329 475.401 231.623 480.56 239.768C480.756 240.079 480.885 240.428 480.939 240.793C480.992 241.157 480.968 241.529 480.869 241.883C480.77 242.238 480.597 242.568 480.363 242.852C480.128 243.135 479.836 243.367 479.507 243.531L431.212 267.668C430.845 267.852 430.439 267.948 430.028 267.948Z" fill="#F2F2F2"/>
<path d="M400.61 278.369C403.198 278.369 405.297 276.271 405.297 273.682C405.297 271.094 403.198 268.995 400.61 268.995C398.021 268.995 395.923 271.094 395.923 273.682C395.923 276.271 398.021 278.369 400.61 278.369Z" fill="#090814"/>
<path d="M369.152 267.879C368.723 267.878 368.301 267.773 367.922 267.572L319.907 242.242C319.588 242.074 319.308 241.842 319.082 241.562C318.857 241.281 318.691 240.957 318.595 240.61C318.5 240.262 318.476 239.899 318.526 239.543C318.577 239.186 318.699 238.843 318.887 238.536C325.301 228.256 333.423 219.146 342.903 211.6C359.484 198.458 378.346 191.865 398.959 191.976C406.69 192.011 414.384 193.053 421.846 195.076L422.146 195.156L404.612 249.956L404.365 249.919C402.786 249.681 401.193 249.539 399.597 249.496C381.756 248.996 374.025 261.141 371.529 266.387C371.378 266.705 371.165 266.989 370.901 267.222C370.637 267.454 370.328 267.631 369.994 267.74C369.724 267.83 369.441 267.876 369.157 267.877L369.152 267.879Z" fill="#5C5C5C"/>
<path d="M421.779 195.357L409.379 250.757C407.752 250.263 406.092 249.887 404.411 249.632L421.771 195.355L421.779 195.357Z" fill="#090814"/>
<path d="M322.609 346.727C331.438 346.727 338.595 339.57 338.595 330.741C338.595 321.912 331.438 314.755 322.609 314.755C313.78 314.755 306.623 321.912 306.623 330.741C306.623 339.57 313.78 346.727 322.609 346.727Z" fill="#5C5C5C"/>
<path d="M320.327 339.457C320.038 339.457 319.753 339.39 319.494 339.26C319.235 339.131 319.01 338.943 318.837 338.712L314.268 332.62C313.978 332.224 313.855 331.73 313.927 331.244C313.999 330.759 314.26 330.322 314.652 330.027C315.045 329.733 315.538 329.605 316.024 329.672C316.51 329.739 316.95 329.995 317.249 330.385L320.238 334.37L327.915 322.855C328.191 322.447 328.616 322.165 329.099 322.07C329.582 321.975 330.082 322.075 330.492 322.348C330.901 322.621 331.186 323.045 331.284 323.527C331.382 324.009 331.285 324.511 331.015 324.922L321.877 338.628C321.711 338.876 321.489 339.081 321.228 339.225C320.967 339.369 320.675 339.449 320.377 339.457H320.327Z" fill="white"/>
<path d="M748.091 360.353H542.554C541.545 360.352 540.577 359.951 539.864 359.237C539.15 358.524 538.749 357.556 538.748 356.547V305.564C538.749 304.555 539.151 303.588 539.864 302.874C540.577 302.161 541.545 301.759 542.554 301.758H748.091C749.1 301.759 750.067 302.161 750.781 302.874C751.494 303.588 751.895 304.555 751.897 305.564V356.544C751.895 357.553 751.494 358.52 750.781 359.234C750.067 359.947 749.1 360.349 748.091 360.35V360.353ZM542.554 303.279C541.948 303.279 541.366 303.519 540.937 303.948C540.509 304.376 540.267 304.957 540.267 305.563V356.544C540.267 357.15 540.508 357.73 540.936 358.159C541.365 358.587 541.945 358.828 542.551 358.828H748.091C748.696 358.828 749.277 358.587 749.705 358.159C750.134 357.73 750.374 357.15 750.375 356.544V305.563C750.374 304.957 750.134 304.377 749.705 303.949C749.277 303.52 748.696 303.28 748.091 303.279H542.554Z" fill="#E6E6E6"/>
<path d="M606.119 320.118C605.421 320.131 604.757 320.418 604.268 320.916C603.779 321.415 603.506 322.085 603.506 322.782C603.506 323.48 603.779 324.15 604.268 324.649C604.757 325.147 605.421 325.433 606.119 325.447H731.719C732.421 325.467 733.102 325.208 733.615 324.728C734.128 324.248 734.43 323.585 734.456 322.883C734.483 322.181 734.231 321.497 733.756 320.98C733.281 320.463 732.621 320.154 731.919 320.121H731.802H606.118L606.119 320.118Z" fill="#E6E6E6"/>
<path d="M606.119 336.102C605.412 336.102 604.734 336.383 604.235 336.882C603.735 337.382 603.454 338.06 603.454 338.767C603.454 339.473 603.735 340.151 604.235 340.651C604.734 341.15 605.412 341.431 606.119 341.431H731.719C732.421 341.451 733.102 341.192 733.615 340.712C734.128 340.232 734.43 339.569 734.456 338.867C734.483 338.165 734.231 337.481 733.756 336.964C733.281 336.447 732.62 336.138 731.919 336.105H731.802H606.118L606.119 336.102Z" fill="#E6E6E6"/>
<path d="M675.616 267.948C675.13 267.95 674.652 267.816 674.237 267.563C673.822 267.31 673.486 266.946 673.265 266.513C671.386 262.84 668.792 259.579 665.636 256.921C662.479 254.264 658.824 252.264 654.884 251.039C653.271 250.55 651.624 250.177 649.958 249.924L649.618 249.873L667.148 195.065L667.448 195.075C701.504 204.329 720.989 231.623 726.148 239.768C726.345 240.079 726.474 240.428 726.527 240.793C726.58 241.157 726.556 241.529 726.457 241.883C726.358 242.238 726.185 242.568 725.951 242.852C725.716 243.135 725.425 243.367 725.095 243.531L676.8 267.668C676.433 267.852 676.027 267.948 675.616 267.948Z" fill="#F2F2F2"/>
<path d="M646.198 278.369C648.786 278.369 650.885 276.271 650.885 273.682C650.885 271.094 648.786 268.995 646.198 268.995C643.609 268.995 641.511 271.094 641.511 273.682C641.511 276.271 643.609 278.369 646.198 278.369Z" fill="#090814"/>
<path d="M614.74 267.879C614.311 267.878 613.889 267.773 613.51 267.572L565.495 242.242C565.177 242.074 564.896 241.842 564.67 241.562C564.445 241.281 564.279 240.957 564.183 240.61C564.088 240.262 564.064 239.899 564.115 239.543C564.165 239.186 564.287 238.843 564.475 238.536C570.889 228.256 579.011 219.146 588.491 211.6C605.072 198.458 623.934 191.865 644.547 191.976C652.278 192.011 659.972 193.053 667.434 195.076L667.734 195.156L650.2 249.956L649.953 249.919C648.374 249.681 646.782 249.539 645.185 249.496C627.344 248.996 619.613 261.141 617.117 266.387C616.967 266.705 616.753 266.989 616.489 267.222C616.225 267.454 615.916 267.631 615.582 267.74C615.312 267.83 615.03 267.876 614.745 267.877L614.74 267.879Z" fill="#5C5C5C"/>
<path d="M667.367 195.357L654.967 250.757C653.34 250.263 651.68 249.887 649.999 249.632L667.359 195.355L667.367 195.357Z" fill="#090814"/>
<path d="M568.197 346.727C577.026 346.727 584.183 339.57 584.183 330.741C584.183 321.912 577.026 314.755 568.197 314.755C559.368 314.755 552.211 321.912 552.211 330.741C552.211 339.57 559.368 346.727 568.197 346.727Z" fill="#5C5C5C"/>
<path d="M565.915 339.457C565.626 339.457 565.341 339.39 565.082 339.26C564.823 339.131 564.599 338.943 564.425 338.712L559.856 332.62C559.566 332.224 559.443 331.73 559.515 331.244C559.587 330.759 559.848 330.322 560.241 330.027C560.633 329.733 561.126 329.605 561.612 329.672C562.099 329.739 562.539 329.995 562.837 330.385L565.826 334.37L573.503 322.855C573.779 322.447 574.204 322.165 574.687 322.07C575.17 321.975 575.671 322.075 576.08 322.348C576.489 322.621 576.774 323.045 576.872 323.527C576.97 324.009 576.873 324.511 576.603 324.922L567.465 338.628C567.3 338.876 567.077 339.081 566.816 339.225C566.555 339.369 566.263 339.449 565.965 339.457H565.915Z" fill="white"/>
<path d="M53.7339 401.503H745.734C749.048 401.503 751.734 403.488 751.734 405.936V485.736C751.734 488.184 749.048 490.169 745.734 490.169H53.7339C50.4199 490.169 47.7339 488.184 47.7339 485.736V405.936C47.7339 403.488 50.4199 401.503 53.7339 401.503Z" fill="#F2F2F2"/>
<path d="M749.706 130.071H49.9268C48.7178 130.071 47.7368 129.83 47.7368 129.532V47.017C47.7368 46.717 48.7168 46.478 49.9268 46.478C51.1368 46.478 52.1168 46.719 52.1168 47.017V128.994H749.709C750.919 128.994 751.899 129.235 751.899 129.533C751.899 129.831 750.919 130.072 749.709 130.072L749.706 130.071Z" fill="#E6E6E6"/>
<path d="M84.9909 124.146H69.3329C69.1228 124.146 68.9147 124.105 68.7206 124.024C68.5265 123.944 68.3501 123.826 68.2015 123.677C68.053 123.529 67.9351 123.352 67.8547 123.158C67.7743 122.964 67.7329 122.756 67.7329 122.546V100.962C67.7329 100.752 67.7743 100.544 67.8547 100.35C67.9351 100.156 68.053 99.9793 68.2015 99.8307C68.3501 99.6821 68.5265 99.5643 68.7206 99.4839C68.9147 99.4034 69.1228 99.3621 69.3329 99.3621H84.9909C85.201 99.3621 85.4091 99.4034 85.6032 99.4839C85.7973 99.5643 85.9737 99.6821 86.1223 99.8307C86.2709 99.9793 86.3887 100.156 86.4691 100.35C86.5495 100.544 86.5909 100.752 86.5909 100.962V122.547C86.5909 122.971 86.4223 123.378 86.1223 123.678C85.8222 123.978 85.4153 124.147 84.9909 124.147V124.146Z" fill="#5C5C5C"/>
<path d="M280.991 124.145H265.333C265.123 124.145 264.915 124.104 264.721 124.023C264.527 123.943 264.35 123.825 264.202 123.677C264.053 123.528 263.935 123.352 263.855 123.158C263.774 122.963 263.733 122.755 263.733 122.545V80.4872C263.733 80.0629 263.902 79.6559 264.202 79.3558C264.502 79.0558 264.909 78.8872 265.333 78.8872H280.991C281.201 78.8872 281.409 78.9286 281.603 79.009C281.797 79.0894 281.974 79.2073 282.122 79.3558C282.271 79.5044 282.389 79.6808 282.469 79.8749C282.55 80.069 282.591 80.2771 282.591 80.4872V122.545C282.591 122.755 282.55 122.963 282.469 123.158C282.389 123.352 282.271 123.528 282.122 123.677C281.974 123.825 281.797 123.943 281.603 124.023C281.409 124.104 281.201 124.145 280.991 124.145Z" fill="#5C5C5C"/>
<path d="M420.991 124.146H405.333C405.123 124.146 404.915 124.105 404.721 124.024C404.527 123.944 404.35 123.826 404.202 123.677C404.053 123.529 403.935 123.352 403.855 123.158C403.774 122.964 403.733 122.756 403.733 122.546V100.962C403.733 100.752 403.774 100.544 403.855 100.35C403.935 100.156 404.053 99.9793 404.202 99.8307C404.35 99.6821 404.527 99.5643 404.721 99.4839C404.915 99.4034 405.123 99.3621 405.333 99.3621H420.991C421.201 99.3621 421.409 99.4034 421.603 99.4839C421.797 99.5643 421.974 99.6821 422.122 99.8307C422.271 99.9793 422.389 100.156 422.469 100.35C422.55 100.544 422.591 100.752 422.591 100.962V122.547C422.591 122.971 422.422 123.378 422.122 123.678C421.822 123.978 421.415 124.146 420.991 124.146Z" fill="#5C5C5C"/>
<path d="M532.93 124.144H517.272C516.857 124.153 516.456 123.998 516.156 123.711C515.856 123.425 515.682 123.032 515.672 122.617V72.332C515.682 71.9176 515.856 71.5241 516.156 71.2378C516.456 70.9516 516.857 70.7959 517.272 70.8051H532.93C533.344 70.7959 533.746 70.9516 534.046 71.2378C534.345 71.5241 534.52 71.9176 534.53 72.332V122.617C534.52 123.032 534.345 123.425 534.046 123.711C533.746 123.998 533.344 124.153 532.93 124.144Z" fill="#5C5C5C"/>
<path d="M730.202 124.145H714.544C714.119 124.145 713.713 123.976 713.412 123.676C713.112 123.376 712.944 122.969 712.944 122.545V57.859C712.944 57.4347 713.112 57.0277 713.412 56.7277C713.713 56.4276 714.119 56.259 714.544 56.259H730.202C730.412 56.259 730.62 56.3004 730.814 56.3808C731.008 56.4612 731.185 56.5791 731.333 56.7277C731.482 56.8762 731.6 57.0526 731.68 57.2467C731.76 57.4409 731.802 57.6489 731.802 57.859V122.547C731.801 122.971 731.633 123.377 731.333 123.677C731.033 123.977 730.626 124.145 730.202 124.145Z" fill="#5C5C5C"/>
<path d="M77.2247 92.8972C79.0102 92.8972 80.4577 91.4497 80.4577 89.6642C80.4577 87.8786 79.0102 86.4312 77.2247 86.4312C75.4392 86.4312 73.9917 87.8786 73.9917 89.6642C73.9917 91.4497 75.4392 92.8972 77.2247 92.8972Z" fill="#3F3D56"/>
<path d="M272.985 74.863C274.77 74.863 276.218 73.4155 276.218 71.63C276.218 69.8444 274.77 68.397 272.985 68.397C271.199 68.397 269.752 69.8444 269.752 71.63C269.752 73.4155 271.199 74.863 272.985 74.863Z" fill="#3F3D56"/>
<path d="M413.164 92.8972C414.949 92.8972 416.397 91.4497 416.397 89.6642C416.397 87.8786 414.949 86.4312 413.164 86.4312C411.378 86.4312 409.931 87.8786 409.931 89.6642C409.931 91.4497 411.378 92.8972 413.164 92.8972Z" fill="#3F3D56"/>
<path d="M525.506 65.6472C527.291 65.6472 528.739 64.1997 528.739 62.4142C528.739 60.6286 527.291 59.1812 525.506 59.1812C523.72 59.1812 522.273 60.6286 522.273 62.4142C522.273 64.1997 523.72 65.6472 525.506 65.6472Z" fill="#3F3D56"/>
<path d="M722.375 49.7951C724.16 49.7951 725.608 48.3476 725.608 46.5621C725.608 44.7766 724.16 43.3291 722.375 43.3291C720.589 43.3291 719.142 44.7766 719.142 46.5621C719.142 48.3476 720.589 49.7951 722.375 49.7951Z" fill="#3F3D56"/>
<path d="M413.462 90.387L274.452 71.767L80.5359 90.094L76.9009 89.231L274.452 70.421L412.694 88.939L525.269 61.781L525.908 61.735L720.308 46.407L722.575 47.407L528.814 62.691L413.462 90.387Z" fill="#3F3D56"/>
<path d="M112.991 124.145H97.3327C96.887 124.122 96.4686 123.923 96.1689 123.592C95.8691 123.262 95.7123 122.826 95.7327 122.38V98.5621C95.7123 98.1163 95.8691 97.6804 96.1689 97.3498C96.4686 97.0191 96.887 96.8204 97.3327 96.7971H112.991C113.436 96.8204 113.855 97.0191 114.155 97.3498C114.454 97.6804 114.611 98.1163 114.591 98.5621V122.38C114.611 122.826 114.454 123.262 114.155 123.592C113.855 123.923 113.436 124.122 112.991 124.145Z" fill="#E6E6E6"/>
<path d="M140.991 124.145H125.333C124.887 124.122 124.469 123.923 124.169 123.592C123.869 123.262 123.712 122.826 123.733 122.38V98.5621C123.712 98.1163 123.869 97.6804 124.169 97.3498C124.469 97.0191 124.887 96.8204 125.333 96.7971H140.991C141.436 96.8204 141.855 97.0191 142.155 97.3498C142.454 97.6804 142.611 98.1163 142.591 98.5621V122.38C142.611 122.826 142.454 123.262 142.155 123.592C141.855 123.923 141.436 124.122 140.991 124.145Z" fill="#E6E6E6"/>
<path d="M168.991 124.145H153.333C152.856 124.083 152.422 123.838 152.123 123.461C151.825 123.085 151.684 122.606 151.733 122.128V94.912C151.685 94.4338 151.825 93.9558 152.124 93.5794C152.423 93.203 152.856 92.9579 153.333 92.896H168.991C169.467 92.9579 169.901 93.203 170.2 93.5794C170.498 93.9558 170.639 94.4338 170.591 94.912V122.129C170.639 122.607 170.498 123.085 170.2 123.462C169.901 123.838 169.467 124.083 168.991 124.145Z" fill="#E6E6E6"/>
<path d="M196.991 124.145H181.333C180.45 124.145 179.733 123.169 179.733 121.967V92.563C179.733 91.363 180.449 90.386 181.333 90.385H196.991C197.874 90.385 198.591 91.361 198.591 92.563V121.963C198.591 123.163 197.874 124.14 196.991 124.141V124.145Z" fill="#E6E6E6"/>
<path d="M224.991 124.15H209.333C208.45 124.15 207.733 123.113 207.733 121.835V90.5892C207.733 89.3112 208.449 88.2762 209.333 88.2742H224.991C225.874 88.2742 226.591 89.3112 226.591 90.5892V121.83C226.591 123.108 225.874 124.143 224.991 124.145V124.15Z" fill="#E6E6E6"/>
<path d="M252.991 124.145H237.333C236.45 124.145 235.733 123.055 235.733 121.711V88.8642C235.733 87.5212 236.449 86.4322 237.333 86.4302H252.991C253.874 86.4302 254.591 87.5202 254.591 88.8642V121.711C254.591 123.054 253.874 124.143 252.991 124.145Z" fill="#E6E6E6"/>
<path d="M308.991 124.145H293.333C292.45 124.145 291.733 123.055 291.733 121.711V88.8642C291.733 87.5212 292.449 86.4322 293.333 86.4302H308.991C309.874 86.4302 310.591 87.5202 310.591 88.8642V121.711C310.591 123.054 309.874 124.143 308.991 124.145Z" fill="#E6E6E6"/>
<path d="M336.991 124.15H321.333C320.45 124.15 319.733 123.113 319.733 121.835V90.5892C319.733 89.3112 320.449 88.2762 321.333 88.2742H336.991C337.874 88.2742 338.591 89.3112 338.591 90.5892V121.83C338.591 123.108 337.874 124.143 336.991 124.145V124.15Z" fill="#E6E6E6"/>
<path d="M364.991 124.145H349.333C348.856 124.083 348.422 123.838 348.123 123.461C347.825 123.085 347.684 122.606 347.733 122.128V94.912C347.685 94.4338 347.825 93.9558 348.124 93.5794C348.423 93.203 348.856 92.9579 349.333 92.896H364.991C365.467 92.9579 365.901 93.203 366.2 93.5794C366.498 93.9558 366.639 94.4338 366.591 94.912V122.129C366.639 122.607 366.498 123.085 366.2 123.462C365.901 123.838 365.467 124.083 364.991 124.145Z" fill="#E6E6E6"/>
<path d="M392.991 124.145H377.333C376.887 124.122 376.469 123.923 376.169 123.592C375.869 123.262 375.712 122.826 375.733 122.38V98.5621C375.712 98.1163 375.869 97.6804 376.169 97.3498C376.469 97.0191 376.887 96.8204 377.333 96.7971H392.991C393.436 96.8204 393.855 97.0191 394.155 97.3498C394.454 97.6804 394.611 98.1163 394.591 98.5621V122.38C394.611 122.826 394.454 123.262 394.155 123.592C393.855 123.923 393.436 124.122 392.991 124.145Z" fill="#E6E6E6"/>
<path d="M448.931 124.145H433.273C432.827 124.122 432.409 123.923 432.109 123.592C431.809 123.262 431.652 122.826 431.673 122.38V98.5621C431.652 98.1163 431.809 97.6804 432.109 97.3498C432.409 97.0191 432.827 96.8204 433.273 96.7971H448.931C449.377 96.8204 449.795 97.0191 450.095 97.3498C450.395 97.6804 450.551 98.1163 450.531 98.5621V122.38C450.551 122.826 450.395 123.262 450.095 123.592C449.795 123.923 449.377 124.122 448.931 124.145Z" fill="#E6E6E6"/>
<path d="M476.931 124.145H461.273C460.796 124.083 460.362 123.838 460.064 123.461C459.765 123.085 459.625 122.606 459.673 122.128V94.912C459.625 94.4338 459.765 93.9558 460.064 93.5794C460.363 93.203 460.796 92.9579 461.273 92.896H476.931C477.407 92.9579 477.841 93.203 478.14 93.5794C478.439 93.9558 478.579 94.4338 478.531 94.912V122.129C478.579 122.607 478.439 123.085 478.14 123.462C477.841 123.838 477.407 124.083 476.931 124.145Z" fill="#E6E6E6"/>
<path d="M504.931 124.145H489.273C488.39 124.145 487.673 123.169 487.673 121.967V92.563C487.673 91.363 488.389 90.386 489.273 90.385H504.931C505.814 90.385 506.531 91.361 506.531 92.563V121.963C506.531 123.163 505.814 124.14 504.931 124.141V124.145Z" fill="#E6E6E6"/>
<path d="M560.931 124.145H545.273C544.39 124.145 543.673 123.055 543.673 121.711V88.8642C543.673 87.5212 544.389 86.4322 545.273 86.4302H560.931C561.814 86.4302 562.531 87.5202 562.531 88.8642V121.711C562.531 123.054 561.814 124.143 560.931 124.145Z" fill="#E6E6E6"/>
<path d="M588.931 124.15H573.273C572.39 124.15 571.673 123.113 571.673 121.835V90.5892C571.673 89.3112 572.389 88.2762 573.273 88.2742H588.931C589.814 88.2742 590.531 89.3112 590.531 90.5892V121.83C590.531 123.108 589.814 124.143 588.931 124.145V124.15Z" fill="#E6E6E6"/>
<path d="M616.931 124.145H601.273C600.39 124.145 599.673 123.055 599.673 121.711V88.8642C599.673 87.5212 600.389 86.4322 601.273 86.4302H616.931C617.814 86.4302 618.531 87.5202 618.531 88.8642V121.711C618.531 123.054 617.814 124.143 616.931 124.145Z" fill="#E6E6E6"/>
<path d="M644.931 124.145H629.273C628.39 124.145 627.673 122.837 627.673 121.225V81.8082C627.673 80.1962 628.389 78.8892 629.273 78.8882H644.931C645.814 78.8882 646.531 80.1962 646.531 81.8082V121.225C646.531 122.837 645.814 124.144 644.931 124.145Z" fill="#E6E6E6"/>
<path d="M672.931 124.144H657.273C656.39 124.144 655.673 122.626 655.673 120.755V75.0182C655.673 73.1472 656.389 71.6312 657.273 71.6292H672.931C673.814 71.6292 674.531 73.1472 674.531 75.0182V120.756C674.531 122.627 673.814 124.142 672.931 124.144Z" fill="#E6E6E6"/>
<path d="M700.931 124.145H685.273C684.39 124.145 683.673 122.454 683.673 120.37V69.421C683.673 67.337 684.389 65.648 685.273 65.646H700.931C701.814 65.646 702.531 67.337 702.531 69.421V120.371C702.531 122.455 701.814 124.143 700.931 124.146V124.145Z" fill="#E6E6E6"/>
</svg>
