<svg width="800" height="573" viewBox="0 0 800 573" fill="none" xmlns="http://www.w3.org/2000/svg">
<path d="M635.5 63.361C634.5 62.697 633.5 62.067 632.5 61.425C603.695 43.0027 572.821 28.0366 540.515 16.836L533.024 120.171H485.537V1.752C482.548 1.134 479.537 0.552 476.523 0V120.171H420.09C389.023 120.171 359.229 107.83 337.262 85.8624C315.294 63.8949 302.953 34.1007 302.953 3.03401C299.929 3.68701 296.928 4.386 293.927 5.134V120.171H247.964L240.828 21.635C207.629 34.3674 176.112 51.1109 146.977 71.493C146.477 71.837 145.969 72.193 145.477 72.535C142.946 74.31 140.449 76.12 137.963 77.953V472.177H273.426L271.032 439.019L257.86 256.963H523.116L509.944 439.019L507.55 472.177H641.513V67.347C639.52 65.9957 637.515 64.667 635.5 63.361ZM293.928 226.897H255.684L248.617 129.197H293.928V226.897ZM476.523 226.897H412.29V224.961C412.29 224.031 412.107 223.109 411.75 222.25C411.394 221.39 410.871 220.609 410.213 219.952C409.554 219.294 408.772 218.773 407.912 218.418C407.052 218.063 406.13 217.881 405.2 217.883H377.276C376.346 217.883 375.426 218.065 374.567 218.421C373.708 218.777 372.928 219.298 372.27 219.955C371.613 220.613 371.092 221.393 370.736 222.252C370.38 223.111 370.198 224.031 370.198 224.961V226.897H302.953V129.197H476.523V226.897ZM485.537 226.897V129.197H532.371L525.304 226.897H485.537Z" fill="#E6E6E6"/>
<path d="M0 497.422C8.75434 509.121 18.3075 520.2 28.591 530.58L771.41 531.726C781.694 521.345 791.247 510.266 800.001 498.567L0 497.422Z" fill="#F2F2F2"/>
<path d="M506.078 391.248V489.411C506.079 490.662 506.576 491.862 507.461 492.746C508.346 493.631 509.545 494.128 510.796 494.129H656.258C657.509 494.128 658.709 493.63 659.593 492.746C660.478 491.861 660.975 490.662 660.976 489.411V391.248C660.973 389.998 660.475 388.8 659.591 387.917C658.706 387.033 657.508 386.536 656.258 386.535H510.796C509.546 386.536 508.348 387.033 507.464 387.917C506.579 388.8 506.081 389.998 506.078 391.248Z" fill="#3F3D56"/>
<path d="M509.491 392.468V488.198C509.492 488.866 509.758 489.507 510.231 489.979C510.703 490.452 511.344 490.718 512.012 490.719H655.052C655.72 490.718 656.361 490.452 656.833 489.979C657.306 489.507 657.572 488.866 657.573 488.198V392.468C657.573 391.799 657.308 391.157 656.835 390.683C656.362 390.209 655.721 389.943 655.052 389.941H512.012C511.343 389.943 510.702 390.209 510.229 390.683C509.756 391.157 509.491 391.799 509.491 392.468Z" fill="black"/>
<path d="M503.036 508.554C503.302 508.889 503.64 509.159 504.026 509.345C504.411 509.53 504.834 509.625 505.262 509.624H661.023C661.449 509.623 661.869 509.528 662.253 509.344C662.637 509.16 662.976 508.893 663.244 508.563C663.512 508.232 663.703 507.845 663.804 507.432C663.904 507.018 663.91 506.587 663.823 506.17L661.405 494.685C661.305 494.216 661.089 493.781 660.777 493.417C660.465 493.053 660.067 492.773 659.62 492.603C659.296 492.476 658.951 492.411 658.603 492.411H507.67C507.322 492.411 506.977 492.476 506.653 492.603C506.205 492.773 505.807 493.053 505.496 493.417C505.184 493.781 504.968 494.216 504.868 494.685L502.45 506.17C502.364 506.587 502.372 507.017 502.473 507.43C502.574 507.844 502.766 508.229 503.035 508.559L503.036 508.554Z" fill="#1F1F20"/>
<path d="M509.268 497.353H513.089C513.358 497.353 513.577 497.135 513.577 496.865V494.963C513.577 494.694 513.358 494.475 513.089 494.475H509.268C508.998 494.475 508.78 494.694 508.78 494.963V496.865C508.78 497.135 508.998 497.353 509.268 497.353Z" fill="#3F3D56"/>
<path d="M509.382 502.15H513.203C513.472 502.15 513.691 501.931 513.691 501.662V499.76C513.691 499.49 513.472 499.272 513.203 499.272H509.382C509.112 499.272 508.894 499.49 508.894 499.76V501.662C508.894 501.931 509.112 502.15 509.382 502.15Z" fill="#3F3D56"/>
<path d="M610.998 507.908H573.737C573.589 507.908 573.447 507.849 573.342 507.744C573.237 507.639 573.178 507.497 573.178 507.349V505.589C573.178 505.441 573.237 505.299 573.342 505.194C573.447 505.089 573.589 505.03 573.737 505.03H610.998C611.146 505.03 611.289 505.089 611.393 505.194C611.498 505.299 611.557 505.441 611.557 505.589V507.349C611.557 507.497 611.498 507.639 611.393 507.744C611.289 507.849 611.146 507.908 610.998 507.908Z" fill="#3F3D56"/>
<path d="M534.487 410.886H530.776C529.914 410.886 529.215 411.585 529.215 412.447V412.901C529.215 413.763 529.914 414.462 530.776 414.462H534.487C535.349 414.462 536.048 413.763 536.048 412.901V412.447C536.048 411.585 535.349 410.886 534.487 410.886Z" fill="white"/>
<path d="M571.739 410.886H568.028C567.166 410.886 566.467 411.585 566.467 412.447V412.901C566.467 413.763 567.166 414.462 568.028 414.462H571.739C572.601 414.462 573.3 413.763 573.3 412.901V412.447C573.3 411.585 572.601 410.886 571.739 410.886Z" fill="white"/>
<path d="M582.293 410.886H578.582C577.72 410.886 577.021 411.585 577.021 412.447V412.901C577.021 413.763 577.72 414.462 578.582 414.462H582.293C583.155 414.462 583.854 413.763 583.854 412.901V412.447C583.854 411.585 583.155 410.886 582.293 410.886Z" fill="white"/>
<path d="M561.606 410.587H540.909C540.047 410.587 539.348 411.286 539.348 412.148V412.602C539.348 413.464 540.047 414.163 540.909 414.163H561.606C562.468 414.163 563.167 413.464 563.167 412.602V412.148C563.167 411.286 562.468 410.587 561.606 410.587Z" fill="white"/>
<path d="M611.274 410.587H590.577C589.715 410.587 589.016 411.286 589.016 412.148V412.602C589.016 413.464 589.715 414.163 590.577 414.163H611.274C612.136 414.163 612.835 413.464 612.835 412.602V412.148C612.835 411.286 612.136 410.587 611.274 410.587Z" fill="white"/>
<path d="M544.421 418.956H540.71C539.848 418.956 539.149 419.655 539.149 420.517V420.971C539.149 421.833 539.848 422.532 540.71 422.532H544.421C545.283 422.532 545.982 421.833 545.982 420.971V420.517C545.982 419.655 545.283 418.956 544.421 418.956Z" fill="white"/>
<path d="M581.672 418.956H577.961C577.099 418.956 576.4 419.655 576.4 420.517V420.971C576.4 421.833 577.099 422.532 577.961 422.532H581.672C582.534 422.532 583.233 421.833 583.233 420.971V420.517C583.233 419.655 582.534 418.956 581.672 418.956Z" fill="white"/>
<path d="M592.227 418.956H588.516C587.654 418.956 586.955 419.655 586.955 420.517V420.971C586.955 421.833 587.654 422.532 588.516 422.532H592.227C593.089 422.532 593.788 421.833 593.788 420.971V420.517C593.788 419.655 593.089 418.956 592.227 418.956Z" fill="white"/>
<path d="M571.54 418.658H550.843C549.981 418.658 549.282 419.357 549.282 420.219V420.673C549.282 421.535 549.981 422.234 550.843 422.234H571.54C572.402 422.234 573.101 421.535 573.101 420.673V420.219C573.101 419.357 572.402 418.658 571.54 418.658Z" fill="white"/>
<path d="M621.207 418.658H600.51C599.648 418.658 598.949 419.357 598.949 420.219V420.673C598.949 421.535 599.648 422.234 600.51 422.234H621.207C622.069 422.234 622.768 421.535 622.768 420.673V420.219C622.768 419.357 622.069 418.658 621.207 418.658Z" fill="white"/>
<path d="M554.355 427.028H550.644C549.782 427.028 549.083 427.727 549.083 428.589V429.043C549.083 429.905 549.782 430.604 550.644 430.604H554.355C555.217 430.604 555.916 429.905 555.916 429.043V428.589C555.916 427.727 555.217 427.028 554.355 427.028Z" fill="white"/>
<path d="M591.605 427.028H587.894C587.032 427.028 586.333 427.727 586.333 428.589V429.043C586.333 429.905 587.032 430.604 587.894 430.604H591.605C592.467 430.604 593.166 429.905 593.166 429.043V428.589C593.166 427.727 592.467 427.028 591.605 427.028Z" fill="white"/>
<path d="M602.16 427.028H598.449C597.587 427.028 596.888 427.727 596.888 428.589V429.043C596.888 429.905 597.587 430.604 598.449 430.604H602.16C603.022 430.604 603.721 429.905 603.721 429.043V428.589C603.721 427.727 603.022 427.028 602.16 427.028Z" fill="white"/>
<path d="M581.473 426.729H560.776C559.914 426.729 559.215 427.428 559.215 428.29V428.744C559.215 429.606 559.914 430.305 560.776 430.305H581.473C582.335 430.305 583.034 429.606 583.034 428.744V428.29C583.034 427.428 582.335 426.729 581.473 426.729Z" fill="white"/>
<path d="M631.141 426.729H610.444C609.582 426.729 608.883 427.428 608.883 428.29V428.744C608.883 429.606 609.582 430.305 610.444 430.305H631.141C632.003 430.305 632.702 429.606 632.702 428.744V428.29C632.702 427.428 632.003 426.729 631.141 426.729Z" fill="white"/>
<path d="M564.288 435.098H560.577C559.715 435.098 559.016 435.797 559.016 436.659V437.113C559.016 437.975 559.715 438.674 560.577 438.674H564.288C565.15 438.674 565.849 437.975 565.849 437.113V436.659C565.849 435.797 565.15 435.098 564.288 435.098Z" fill="white"/>
<path d="M601.539 435.098H597.828C596.966 435.098 596.267 435.797 596.267 436.659V437.113C596.267 437.975 596.966 438.674 597.828 438.674H601.539C602.401 438.674 603.1 437.975 603.1 437.113V436.659C603.1 435.797 602.401 435.098 601.539 435.098Z" fill="white"/>
<path d="M612.093 435.098H608.382C607.52 435.098 606.821 435.797 606.821 436.659V437.113C606.821 437.975 607.52 438.674 608.382 438.674H612.093C612.955 438.674 613.654 437.975 613.654 437.113V436.659C613.654 435.797 612.955 435.098 612.093 435.098Z" fill="white"/>
<path d="M591.407 434.8H570.71C569.848 434.8 569.149 435.499 569.149 436.361V436.815C569.149 437.677 569.848 438.376 570.71 438.376H591.407C592.269 438.376 592.968 437.677 592.968 436.815V436.361C592.968 435.499 592.269 434.8 591.407 434.8Z" fill="white"/>
<path d="M571.739 467.192H568.028C567.166 467.192 566.467 467.891 566.467 468.753V469.207C566.467 470.069 567.166 470.768 568.028 470.768H571.739C572.601 470.768 573.3 470.069 573.3 469.207V468.753C573.3 467.891 572.601 467.192 571.739 467.192Z" fill="white"/>
<path d="M582.293 467.192H578.582C577.72 467.192 577.021 467.891 577.021 468.753V469.207C577.021 470.069 577.72 470.768 578.582 470.768H582.293C583.155 470.768 583.854 470.069 583.854 469.207V468.753C583.854 467.891 583.155 467.192 582.293 467.192Z" fill="white"/>
<path d="M611.274 467.49H590.577C589.715 467.49 589.016 468.189 589.016 469.051V469.505C589.016 470.367 589.715 471.066 590.577 471.066H611.274C612.136 471.066 612.835 470.367 612.835 469.505V469.051C612.835 468.189 612.136 467.49 611.274 467.49Z" fill="white"/>
<path d="M534.487 467.192H530.776C529.914 467.192 529.215 467.891 529.215 468.753V469.207C529.215 470.069 529.914 470.768 530.776 470.768H534.487C535.349 470.768 536.048 470.069 536.048 469.207V468.753C536.048 467.891 535.349 467.192 534.487 467.192Z" fill="white"/>
<path d="M561.606 467.49H540.909C540.047 467.49 539.348 468.189 539.348 469.051V469.505C539.348 470.367 540.047 471.066 540.909 471.066H561.606C562.468 471.066 563.167 470.367 563.167 469.505V469.051C563.167 468.189 562.468 467.49 561.606 467.49Z" fill="white"/>
<path d="M544.421 459.121H540.71C539.848 459.121 539.149 459.82 539.149 460.682V461.136C539.149 461.998 539.848 462.697 540.71 462.697H544.421C545.283 462.697 545.982 461.998 545.982 461.136V460.682C545.982 459.82 545.283 459.121 544.421 459.121Z" fill="white"/>
<path d="M581.672 459.121H577.961C577.099 459.121 576.4 459.82 576.4 460.682V461.136C576.4 461.998 577.099 462.697 577.961 462.697H581.672C582.534 462.697 583.233 461.998 583.233 461.136V460.682C583.233 459.82 582.534 459.121 581.672 459.121Z" fill="white"/>
<path d="M592.227 459.121H588.516C587.654 459.121 586.955 459.82 586.955 460.682V461.136C586.955 461.998 587.654 462.697 588.516 462.697H592.227C593.089 462.697 593.788 461.998 593.788 461.136V460.682C593.788 459.82 593.089 459.121 592.227 459.121Z" fill="white"/>
<path d="M571.54 459.419H550.843C549.981 459.419 549.282 460.118 549.282 460.98V461.434C549.282 462.296 549.981 462.995 550.843 462.995H571.54C572.402 462.995 573.101 462.296 573.101 461.434V460.98C573.101 460.118 572.402 459.419 571.54 459.419Z" fill="white"/>
<path d="M554.355 451.05H550.644C549.782 451.05 549.083 451.749 549.083 452.611V453.065C549.083 453.927 549.782 454.626 550.644 454.626H554.355C555.217 454.626 555.916 453.927 555.916 453.065V452.611C555.916 451.749 555.217 451.05 554.355 451.05Z" fill="white"/>
<path d="M591.605 451.05H587.894C587.032 451.05 586.333 451.749 586.333 452.611V453.065C586.333 453.927 587.032 454.626 587.894 454.626H591.605C592.467 454.626 593.166 453.927 593.166 453.065V452.611C593.166 451.749 592.467 451.05 591.605 451.05Z" fill="white"/>
<path d="M602.16 451.05H598.449C597.587 451.05 596.888 451.749 596.888 452.611V453.065C596.888 453.927 597.587 454.626 598.449 454.626H602.16C603.022 454.626 603.721 453.927 603.721 453.065V452.611C603.721 451.749 603.022 451.05 602.16 451.05Z" fill="white"/>
<path d="M581.473 451.348H560.776C559.914 451.348 559.215 452.047 559.215 452.909V453.363C559.215 454.225 559.914 454.924 560.776 454.924H581.473C582.335 454.924 583.034 454.225 583.034 453.363V452.909C583.034 452.047 582.335 451.348 581.473 451.348Z" fill="white"/>
<path d="M564.288 442.979H560.577C559.715 442.979 559.016 443.678 559.016 444.54V444.994C559.016 445.856 559.715 446.555 560.577 446.555H564.288C565.15 446.555 565.849 445.856 565.849 444.994V444.54C565.849 443.678 565.15 442.979 564.288 442.979Z" fill="white"/>
<path d="M601.539 442.979H597.828C596.966 442.979 596.267 443.678 596.267 444.54V444.994C596.267 445.856 596.966 446.555 597.828 446.555H601.539C602.401 446.555 603.1 445.856 603.1 444.994V444.54C603.1 443.678 602.401 442.979 601.539 442.979Z" fill="white"/>
<path d="M612.093 442.979H608.382C607.52 442.979 606.821 443.678 606.821 444.54V444.994C606.821 445.856 607.52 446.555 608.382 446.555H612.093C612.955 446.555 613.654 445.856 613.654 444.994V444.54C613.654 443.678 612.955 442.979 612.093 442.979Z" fill="white"/>
<path d="M591.407 443.277H570.71C569.848 443.277 569.149 443.976 569.149 444.838V445.292C569.149 446.154 569.848 446.853 570.71 446.853H591.407C592.269 446.853 592.968 446.154 592.968 445.292V444.838C592.968 443.976 592.269 443.277 591.407 443.277Z" fill="white"/>
<path d="M158.184 386.539V504.008H240.479V386.539C240.48 385.694 240.211 384.871 239.71 384.191C239.209 383.51 238.503 383.008 237.696 382.759C237.315 382.633 236.917 382.571 236.516 382.576H162.158C161.637 382.575 161.12 382.677 160.639 382.875C160.157 383.074 159.719 383.366 159.35 383.734C158.981 384.102 158.688 384.539 158.488 385.02C158.288 385.502 158.184 386.018 158.184 386.539ZM190.304 426.902C190.304 424.572 191.23 422.337 192.877 420.69C194.525 419.042 196.759 418.117 199.089 418.117C201.419 418.117 203.653 419.042 205.301 420.69C206.948 422.337 207.874 424.572 207.874 426.902V440.532C207.874 442.862 206.948 445.096 205.301 446.744C203.653 448.391 201.419 449.317 199.089 449.317C196.759 449.317 194.525 448.391 192.877 446.744C191.23 445.096 190.304 442.862 190.304 440.532V426.902Z" fill="#1F1F20"/>
<path d="M157.932 500.251V511.579C157.934 512.166 158.167 512.728 158.581 513.144C158.995 513.56 159.556 513.796 160.143 513.801H238.521C239.108 513.798 239.671 513.563 240.085 513.146C240.499 512.73 240.732 512.166 240.732 511.579V500.251H157.932Z" fill="#3F3D56"/>
<path d="M28.723 209.557V424.039C28.7251 426.772 29.8118 429.393 31.7445 431.326C33.6772 433.258 36.2978 434.345 39.031 434.347H356.873C359.606 434.345 362.227 433.258 364.16 431.326C366.092 429.393 367.179 426.772 367.181 424.039V209.557C367.175 206.826 366.087 204.208 364.155 202.277C362.223 200.347 359.604 199.261 356.873 199.257H39.031C36.2996 199.261 33.6809 200.347 31.7488 202.277C29.8166 204.208 28.7286 206.826 28.723 209.557Z" fill="#3F3D56"/>
<path d="M36.179 212.226V421.393C36.1816 422.853 36.7628 424.253 37.7954 425.286C38.828 426.318 40.2277 426.899 41.688 426.902H354.225C355.685 426.899 357.085 426.318 358.117 425.286C359.15 424.253 359.731 422.853 359.734 421.393V212.226C359.734 210.764 359.154 209.361 358.121 208.326C357.088 207.291 355.687 206.708 354.225 206.705H41.688C40.2258 206.708 38.8246 207.291 37.7918 208.326C36.759 209.361 36.179 210.764 36.179 212.226Z" fill="white"/>
<path d="M94.1829 513.034C94.5011 513.433 94.9054 513.754 95.3656 513.974C95.8257 514.195 96.3298 514.308 96.84 514.305H282.777C283.285 514.304 283.787 514.19 284.246 513.971C284.705 513.752 285.109 513.433 285.429 513.039C285.749 512.644 285.978 512.182 286.097 511.688C286.217 511.194 286.225 510.68 286.121 510.182L283.235 496.472C283.115 495.913 282.858 495.393 282.486 494.959C282.114 494.525 281.639 494.191 281.105 493.987C280.718 493.835 280.306 493.758 279.891 493.758H99.7129C99.2975 493.758 98.8857 493.835 98.499 493.987C97.9648 494.191 97.4902 494.525 97.1181 494.959C96.7461 495.393 96.4886 495.913 96.369 496.472L93.4829 510.182C93.3804 510.68 93.3901 511.194 93.5112 511.687C93.6323 512.18 93.8617 512.641 94.1829 513.034Z" fill="#1F1F20"/>
<path d="M344.082 235.519H51.643C51.3345 235.519 51.0387 235.396 50.8206 235.178C50.6025 234.96 50.48 234.664 50.48 234.356C50.48 234.047 50.6025 233.752 50.8206 233.534C51.0387 233.315 51.3345 233.193 51.643 233.193H344.083C344.391 233.193 344.687 233.315 344.905 233.534C345.123 233.752 345.246 234.047 345.246 234.356C345.246 234.664 345.123 234.96 344.905 235.178C344.687 235.396 344.39 235.519 344.082 235.519Z" fill="#3F3D56"/>
<path d="M71.549 227.254C75.3128 227.254 78.364 224.135 78.364 220.287C78.364 216.439 75.3128 213.32 71.549 213.32C67.7852 213.32 64.734 216.439 64.734 220.287C64.734 224.135 67.7852 227.254 71.549 227.254Z" fill="#3F3D56"/>
<path d="M95.093 227.254C98.8568 227.254 101.908 224.135 101.908 220.287C101.908 216.439 98.8568 213.32 95.093 213.32C91.3291 213.32 88.278 216.439 88.278 220.287C88.278 224.135 91.3291 227.254 95.093 227.254Z" fill="#3F3D56"/>
<path d="M118.637 227.254C122.401 227.254 125.452 224.135 125.452 220.287C125.452 216.439 122.401 213.32 118.637 213.32C114.873 213.32 111.822 216.439 111.822 220.287C111.822 224.135 114.873 227.254 118.637 227.254Z" fill="#3F3D56"/>
<path d="M515.894 493.653H654.476L657.205 502.816H515.894V493.653Z" fill="#3F3D56"/>
<path d="M329.905 215.043H313.182C312.853 215.052 312.54 215.19 312.31 215.426C312.08 215.662 311.952 215.979 311.952 216.308C311.952 216.638 312.08 216.955 312.31 217.191C312.54 217.427 312.853 217.565 313.182 217.574H329.904C330.073 217.579 330.242 217.55 330.399 217.488C330.557 217.427 330.701 217.334 330.822 217.216C330.943 217.098 331.04 216.957 331.106 216.801C331.172 216.645 331.206 216.478 331.206 216.308C331.206 216.139 331.172 215.972 331.106 215.816C331.04 215.66 330.943 215.519 330.822 215.401C330.701 215.283 330.557 215.19 330.399 215.129C330.242 215.067 330.073 215.038 329.904 215.043H329.905Z" fill="#3F3D56"/>
<path d="M329.904 219.796H313.182C312.846 219.796 312.524 219.929 312.287 220.167C312.049 220.404 311.916 220.726 311.916 221.062C311.916 221.398 312.049 221.72 312.287 221.957C312.524 222.195 312.846 222.328 313.182 222.328H329.904C330.073 222.333 330.242 222.303 330.399 222.242C330.557 222.181 330.701 222.088 330.822 221.97C330.943 221.852 331.04 221.711 331.106 221.555C331.172 221.399 331.206 221.232 331.206 221.062C331.206 220.893 331.172 220.726 331.106 220.57C331.04 220.414 330.943 220.273 330.822 220.155C330.701 220.037 330.557 219.944 330.399 219.883C330.242 219.821 330.073 219.792 329.904 219.797V219.796Z" fill="#3F3D56"/>
<path d="M329.905 224.55H313.182C312.853 224.559 312.54 224.697 312.31 224.933C312.08 225.169 311.952 225.486 311.952 225.816C311.952 226.145 312.08 226.462 312.31 226.698C312.54 226.934 312.853 227.072 313.182 227.081H329.904C330.073 227.086 330.242 227.057 330.399 226.995C330.557 226.934 330.701 226.841 330.822 226.723C330.943 226.605 331.04 226.464 331.106 226.308C331.172 226.152 331.206 225.985 331.206 225.816C331.206 225.646 331.172 225.479 331.106 225.323C331.04 225.167 330.943 225.026 330.822 224.908C330.701 224.79 330.557 224.697 330.399 224.636C330.242 224.575 330.073 224.545 329.904 224.55H329.905Z" fill="#3F3D56"/>
<path d="M712.563 505.252C713.007 506.545 713.85 507.664 714.969 508.449C716.089 509.233 717.429 509.643 718.796 509.618L745.502 508.931C746.879 508.904 748.21 508.432 749.297 507.586C750.384 506.74 751.167 505.565 751.531 504.236L755.31 463.825C756.651 464.433 758.11 464.733 759.582 464.703C762.164 464.638 764.615 463.55 766.395 461.679C768.175 459.807 769.138 457.305 769.073 454.723C769.009 452.14 767.921 449.69 766.049 447.91C764.177 446.13 761.675 445.166 759.093 445.231C758.505 445.229 757.918 445.29 757.343 445.413C756.717 444.736 755.957 444.198 755.111 443.833C754.265 443.468 753.351 443.284 752.43 443.293L711.351 444.354C711.01 444.367 710.671 444.409 710.338 444.48C709.437 444.648 708.583 445.007 707.832 445.533C707.082 446.059 706.453 446.739 705.988 447.529C705.522 448.318 705.231 449.198 705.134 450.109C705.037 451.02 705.137 451.942 705.426 452.811L712.563 505.252ZM756.085 461.082L758.774 451.452C759.08 450.34 759.087 449.168 758.795 448.052C758.925 448.052 759.041 447.99 759.171 447.99C761.018 447.947 762.807 448.639 764.143 449.915C765.48 451.19 766.255 452.944 766.298 454.792C766.342 456.639 765.649 458.427 764.374 459.764C763.098 461.101 761.344 461.876 759.497 461.919C758.305 461.956 757.125 461.668 756.085 461.084V461.082Z" fill="#E6E6E6"/>
<path d="M710.338 444.484C711.213 449.484 721.053 453.006 732.884 452.395C743.764 451.895 752.66 448.073 754.29 443.546C753.687 443.368 753.06 443.284 752.431 443.298L711.352 444.359C711.011 444.372 710.672 444.414 710.339 444.485L710.338 444.484Z" fill="#D6D6E3"/>
<path d="M431.055 415.944C431.055 415.944 342.182 426.662 350.668 415.944C353.741 412.067 354.589 400.581 354.419 387.496C354.365 383.521 354.219 379.404 354.019 375.304C353.036 355.654 350.67 336.45 350.67 336.45C350.67 336.45 428.378 299.829 419.446 328.858C415.873 340.586 417.046 357.058 419.759 372.517C420.554 377.028 421.474 381.449 422.439 385.647C424.792 395.887 427.668 405.999 431.055 415.944Z" fill="#A68E8F"/>
<path d="M262.367 572.583V571.833L419.229 570.127L514.801 569.234H515.069L514.969 570.556L515.103 569.234H515.273V569.082L516.497 557.069L516.961 552.523L517.104 551.103L517.229 549.915L522.749 531.506L528.269 513.124L532.914 497.645L540.006 473.993C540.006 473.993 535.987 464.614 533.754 461.935C531.521 459.256 522.754 440.079 522.754 440.079C522.754 440.079 510.231 422.787 501.898 420.697C498.406 419.804 491.51 418.616 484.186 417.124C481.444 416.57 460.428 410.5 459.177 409.657C452.612 404.843 436.159 404.298 435.525 404.298C435.523 404.277 435.523 404.256 435.525 404.235V404.155C435.548 403.78 435.548 403.405 435.525 403.03C435.535 402.612 435.508 402.194 435.445 401.78C435.454 401.628 435.433 401.476 435.382 401.333C435.337 401.011 435.282 400.672 435.203 400.315C435.176 400.156 435.14 399.998 435.096 399.842C434.837 398.766 434.462 397.721 433.979 396.725C433.916 396.582 433.836 396.43 433.765 396.287C433.327 395.462 432.819 394.676 432.247 393.938C432.131 393.786 432.006 393.625 431.872 393.474C431.14 392.611 430.326 391.822 429.442 391.116C429.201 390.928 428.951 390.732 428.692 390.553C428.547 390.436 428.395 390.328 428.236 390.231L427.441 389.713L426.7 389.284C426.048 388.927 425.36 388.578 424.61 388.248C424.378 388.141 424.128 388.043 423.878 387.948C423.628 387.853 423.235 387.698 422.904 387.573H422.85L422.18 387.305C421.671 387.135 421.153 386.983 420.608 386.832L419.777 386.618L418.884 386.413L417.991 386.225C417.098 386.046 416.142 385.886 415.142 385.761L414.124 385.636L413.079 385.529L411.998 385.44L410.462 385.351L408.676 385.288C400.794 385.287 392.934 386.123 385.228 387.782C379.88 386.592 374.403 386.088 368.928 386.282H368.151L367.258 386.336H366.684L365.532 386.443C365.142 386.461 364.754 386.506 364.371 386.577C363.987 386.631 363.585 386.677 363.201 386.738L362.612 386.838C362.031 386.938 361.442 387.043 360.826 387.168C360.629 387.204 360.433 387.249 360.237 387.302C359.46 387.472 358.683 387.677 357.915 387.909C357.531 388.016 357.147 388.141 356.763 388.275C356.563 388.329 356.379 388.4 356.191 388.475L355.619 388.68L355.056 388.903L354.386 389.171C354.047 389.314 353.716 389.466 353.386 389.627C353.198 389.707 353.011 389.797 352.832 389.895C352.653 389.993 352.466 390.074 352.296 390.172C350.276 391.215 348.41 392.532 346.749 394.084L346.293 394.522L345.846 394.978C345.694 395.13 345.551 395.291 345.408 395.451C344.826 396.087 344.283 396.759 343.782 397.461C343.639 397.649 343.505 397.836 343.371 398.033C342.804 398.869 342.291 399.74 341.835 400.641C341.719 400.855 341.612 401.079 341.505 401.293C340.776 402.802 340.179 404.371 339.719 405.982C339.552 406.577 339.4 407.173 339.263 407.768C339.263 407.768 320.354 416.111 304.67 422.149C300.499 423.757 296.57 425.213 293.282 426.311C292.326 426.632 291.433 426.927 290.602 427.204C288.8 427.855 286.925 428.287 285.02 428.49C284.121 428.505 283.226 428.588 282.34 428.74C275.132 429.91 262.779 434.992 261.43 440.093C261.321 440.5 261.29 440.925 261.341 441.343C261.341 441.343 231.964 532.297 231.641 533.967C230.341 540.773 227.441 553.733 226.014 558.976C224.951 562.888 223.406 568.247 222.343 571.927C222.327 572.035 222.297 572.14 222.254 572.24L262.296 571.847V572.597H262.421L262.367 572.583Z" fill="#0C0C0C"/>
<path d="M435.575 403.064C409.675 407.834 360.904 406.806 339.825 406.083C347.551 378.394 385.225 387.808 385.225 387.808C431.86 378.501 435.432 397.812 435.575 403.064Z" fill="black"/>
<path d="M573.073 525.137C573.073 525.137 603.584 520.448 604.183 533.846C604.782 547.244 588.624 556.604 588.624 556.604L573.073 525.137Z" fill="#A68E8F"/>
<path d="M595.697 551.932C595.697 551.932 594.902 553.825 593.437 556.568C591.221 560.787 588.523 564.734 585.398 568.331L585.157 568.59H583.71L532.137 569.063H530.904L530.752 568.884L520.752 557.014L516.983 552.539L516.831 552.351L516.51 551.976L516.331 551.762L516.099 551.485L508.766 542.785L511.446 531.62L516.01 512.809L516.126 512.353L517.019 508.78L517.653 506.1L519.779 497.365L527.067 467.309L540.018 474.009L553.673 498.132L561.006 511.083H565.023C565.782 511.083 567.523 512.548 569.275 514.236C569.9 514.836 570.525 515.469 571.061 516.022C572.651 517.665 573.91 519.077 573.91 519.077C573.91 519.077 580.421 519.22 582.172 524.347C582.262 524.595 582.337 524.849 582.395 525.106C582.976 527.121 583.732 529.082 584.655 530.965C585.807 533.475 587.255 536.324 588.719 539.173C591.443 544.398 594.212 549.373 595.23 551.173L595.355 551.396L595.697 551.932Z" fill="black"/>
<path d="M262.367 572.584V571.834L419.229 570.128L514.801 569.235H515.069V569.083L515.962 557.083L516.346 551.724L517.811 531.524L518.963 515.536V515.143C519.016 514.406 518.982 513.666 518.863 512.937C518.868 512.908 518.868 512.878 518.863 512.848C518.618 511.341 518.004 509.918 517.077 508.704C516.093 507.443 514.805 506.453 513.333 505.828C511.861 505.203 510.253 504.963 508.663 505.131C497.846 506.239 486.923 507.123 475.99 507.811C474.498 507.918 473.007 508.011 471.524 508.088C401.015 512.277 331.141 508.883 293.332 506.302L290.652 506.102C284.105 505.637 278.63 505.209 274.414 504.843C272.095 504.648 269.785 505.318 267.931 506.725C266.077 508.132 264.811 510.176 264.375 512.462C264.285 512.946 264.231 513.436 264.214 513.927L263.607 533.72L262.776 558.792L262.383 571.618V572.618L262.367 572.584Z" fill="#090814"/>
<path d="M379.201 377.697C407.774 377.697 430.938 354.534 430.938 325.96C430.938 297.387 407.774 274.223 379.201 274.223C350.627 274.223 327.464 297.387 327.464 325.96C327.464 354.534 350.627 377.697 379.201 377.697Z" fill="#A68E8F"/>
<path d="M449.129 289.822C448.728 289.394 448.245 289.05 447.708 288.813C447.172 288.576 446.593 288.449 446.006 288.44L446.784 286.28C447.037 285.6 447.104 284.864 446.98 284.149C446.855 283.434 446.543 282.765 446.075 282.21C445.608 281.655 445.001 281.234 444.317 280.991C443.633 280.747 442.897 280.689 442.184 280.823L439.351 281.369L439.618 279.476C439.721 278.771 439.639 278.051 439.379 277.388C439.12 276.724 438.692 276.14 438.137 275.692C437.583 275.244 436.921 274.949 436.218 274.835C435.515 274.72 434.794 274.792 434.126 275.041C433.519 275.28 432.866 275.38 432.215 275.334C431.564 275.288 430.931 275.096 430.364 274.774C429.794 274.461 429.3 274.028 428.915 273.505C428.53 272.981 428.264 272.38 428.135 271.743L427.148 266.983L427.048 266.728C422.241 258.716 412.999 252.888 401.689 250.751C391.622 248.835 381.3 249.811 371.349 250.728C367.401 251.1 362.943 251.518 359.227 253.793C356.069 255.744 353.398 259.645 353.944 263.581C344.133 260.574 333.613 266.581 328.4 274.147C322.223 283.157 321.213 294.447 321.05 303.267C320.609 324.144 324.917 341.224 333.822 354.042C334.472 354.971 334.635 356.91 335.922 357.56L335.655 357.13C337.095 357.85 338.555 359.011 338.012 360.253C336.445 363.829 346.86 371.736 354.198 374.353C367.586 379.125 385.385 378.719 397.898 377L398.339 374.039C402.856 373.424 406.039 372.251 406.931 370.416C408.51 369.069 409.857 367.862 411.031 366.747L411.043 366.735C411.066 366.712 411.113 366.677 411.136 366.654C416.791 361.232 418.103 358.143 418.695 353.441C419.264 348.831 418.254 344.152 417.22 339.941C438.979 343.308 408.651 316.765 428.92 311.633C429.152 311.561 429.389 311.503 429.628 311.459C430.22 311.32 430.812 311.18 431.381 311.018C434.123 310.274 436.748 309.152 439.181 307.686C444.847 304.238 446.717 299.663 449.643 294.508C450.065 293.774 450.242 292.925 450.149 292.083C450.055 291.242 449.695 290.452 449.121 289.829L449.129 289.822Z" fill="#090814"/>
<path d="M153.957 278.324H241.005C242.828 278.324 244.575 279.048 245.864 280.337C247.153 281.625 247.877 283.373 247.877 285.196C247.877 287.019 247.153 288.766 245.864 290.055C244.575 291.344 242.828 292.068 241.005 292.068H153.957C152.134 292.068 150.386 291.344 149.098 290.055C147.809 288.766 147.085 287.019 147.085 285.196C147.085 283.373 147.809 281.625 149.098 280.337C150.386 279.048 152.134 278.324 153.957 278.324Z" fill="black"/>
<path d="M131.05 310.394H263.913C265.736 310.394 267.483 311.118 268.772 312.407C270.061 313.696 270.785 315.443 270.785 317.266C270.785 319.089 270.061 320.837 268.772 322.125C267.483 323.414 265.736 324.138 263.913 324.138H131.05C129.227 324.138 127.479 323.414 126.191 322.125C124.902 320.837 124.178 319.089 124.178 317.266C124.178 315.443 124.902 313.696 126.191 312.407C127.479 311.118 129.227 310.394 131.05 310.394Z" fill="#E6E6E6"/>
<path d="M131.05 342.465H263.913C265.736 342.465 267.483 343.189 268.772 344.478C270.061 345.767 270.785 347.515 270.785 349.337C270.785 351.16 270.061 352.908 268.772 354.196C267.483 355.485 265.736 356.209 263.913 356.209H131.05C129.227 356.209 127.479 355.485 126.191 354.196C124.902 352.908 124.178 351.16 124.178 349.337C124.178 347.515 124.902 345.767 126.191 344.478C127.479 343.189 129.227 342.465 131.05 342.465Z" fill="#E6E6E6"/>
</svg>
