<svg width="225" height="185" viewBox="0 0 225 185" fill="none" xmlns="http://www.w3.org/2000/svg">
<g clip-path="url(#clip0_14_2)">
<rect width="225" height="185" fill="white"/>
<path d="M33.616 162.376C28.5813 162.376 24.5707 160.456 21.584 156.616C21.328 156.36 21.2 156.061 21.2 155.72C21.2 154.952 21.712 154.44 22.736 154.184C22.8213 154.184 22.864 154.184 22.864 154.184C23.0347 154.099 23.12 154.056 23.12 154.056C23.2053 154.056 23.12 154.099 22.864 154.184C23.12 154.099 23.376 154.056 23.632 154.056L22.864 154.184H22.736C22.48 154.269 22.352 154.44 22.352 154.696C22.352 155.293 23.4187 156.147 25.552 157.256C27.7707 158.451 30.6293 159.048 34.128 159.048C37.2853 159.048 40.7413 158.28 44.496 156.744C48.336 155.208 52.2187 152.392 56.144 148.296C60.1547 144.2 63.9947 138.483 67.664 131.144C71.3333 123.72 74.576 114.205 77.392 102.6C80.2933 90.9093 82.4693 76.7013 83.92 59.976C76.6667 60.9147 69.4133 62.408 62.16 64.456C54.9067 66.4187 48.336 68.936 42.448 72.008C36.56 74.9947 31.824 78.408 28.24 82.248C24.656 86.0027 22.864 90.1413 22.864 94.664C22.864 95.176 22.864 95.688 22.864 96.2C22.9493 96.712 23.0347 97.224 23.12 97.736C23.5467 99.6133 24.1013 101.277 24.784 102.728C25.552 104.179 26.6187 105.331 27.984 106.184C28.752 106.696 29.136 107.165 29.136 107.592C29.136 108.104 28.7947 108.36 28.112 108.36C27.5147 108.36 26.9173 108.189 26.32 107.848C24.272 106.568 22.7787 104.947 21.84 102.984C20.9867 101.021 20.3467 99.0587 19.92 97.096C19.664 95.9013 19.536 94.7493 19.536 93.64C19.536 89.7147 20.688 86.088 22.992 82.76C25.3813 79.3467 28.4533 76.2747 32.208 73.544C36.048 70.728 40.2293 68.2533 44.752 66.12C49.36 63.9867 53.8827 62.1947 58.32 60.744C62.8427 59.2933 66.9387 58.2267 70.608 57.544C72.5707 57.1173 74.704 56.7333 77.008 56.392C79.312 56.0507 81.744 55.752 84.304 55.496C84.3893 54.3013 84.4747 53.1067 84.56 51.912C84.6453 50.7173 84.7307 49.5227 84.816 48.328C84.9013 47.304 85.2427 46.536 85.84 46.024C86.4373 45.512 87.0773 45.256 87.76 45.256C88.4427 45.256 89.0827 45.512 89.68 46.024C90.3627 46.536 90.704 47.304 90.704 48.328C90.704 49.4373 90.6613 50.5467 90.576 51.656C90.576 52.7653 90.5333 53.8747 90.448 54.984C91.728 54.8987 93.008 54.856 94.288 54.856C95.568 54.7707 96.8907 54.728 98.256 54.728C103.12 54.728 107.813 55.112 112.336 55.88C116.944 56.5627 120.997 57.7573 124.496 59.464C128.08 61.1707 130.725 63.5173 132.432 66.504C132.773 66.9307 132.944 67.4 132.944 67.912C132.944 68.5947 132.688 68.936 132.176 68.936C131.579 68.936 131.024 68.5093 130.512 67.656C128.72 64.584 125.136 62.3227 119.76 60.872C114.469 59.4213 108.283 58.696 101.2 58.696C99.408 58.696 97.5733 58.7387 95.696 58.824C93.904 58.9093 92.0693 59.0373 90.192 59.208C89.2533 73.3733 87.3333 86.0027 84.432 97.096C81.616 108.189 78.16 117.832 74.064 126.024C69.968 134.216 65.5733 141 60.88 146.376C56.1867 151.752 51.4507 155.763 46.672 158.408C41.9787 161.053 37.6267 162.376 33.616 162.376Z" fill="black"/>
<path d="M94.072 143.104C90.744 143.104 87.544 141.867 84.472 139.392C81.4 137.003 78.7547 133.035 76.536 127.488C75.768 125.525 75.2133 123.477 74.872 121.344C74.5307 119.211 74.36 117.077 74.36 114.944C74.36 111.445 74.744 107.947 75.512 104.448C76.28 100.949 77.2613 97.664 78.456 94.592C79.3947 92.3733 80.7173 89.8987 82.424 87.168C84.1307 84.352 85.752 82.048 87.288 80.256C87.8 79.744 88.44 79.1893 89.208 78.592C89.976 77.9093 90.488 77.568 90.744 77.568C90.8293 77.568 90.872 77.6107 90.872 77.696C90.872 77.952 90.1467 78.976 88.696 80.768C85.1973 85.0347 82.5947 89.8987 80.888 95.36C79.2667 100.736 78.456 106.069 78.456 111.36C78.456 114.517 78.712 117.547 79.224 120.448C79.8213 123.349 80.5893 126.037 81.528 128.512C83.32 133.035 85.24 136.277 87.288 138.24C89.4213 140.203 91.64 141.184 93.944 141.184C96.8453 141.184 99.7893 139.947 102.776 137.472C105.763 134.997 108.664 131.712 111.48 127.616C114.381 123.52 117.069 119.083 119.544 114.304C122.019 109.525 124.152 104.789 125.944 100.096C127.821 95.3173 129.187 91.0507 130.04 87.296L131.96 79.36C131.533 79.2747 131.32 79.104 131.32 78.848C131.32 78.4213 131.661 77.9947 132.344 77.568C133.368 72.96 134.136 68.4373 134.648 64C135.245 59.5627 135.544 55.4667 135.544 51.712C135.544 47.616 135.16 44.032 134.392 40.96C133.709 37.8027 132.557 35.4133 130.936 33.792C130.253 33.1093 129.485 32.768 128.632 32.768C128.035 32.768 127.395 32.9387 126.712 33.28C126.115 33.6213 125.517 34.048 124.92 34.56C124.323 35.1573 124.237 35.0293 124.664 34.176C125.176 33.2373 125.987 32.2133 127.096 31.104C128.291 29.9947 129.571 29.44 130.936 29.44C131.704 29.44 132.472 29.696 133.24 30.208C135.971 32.0853 137.891 34.944 139 38.784C140.195 42.624 140.792 47.0613 140.792 52.096C140.792 55.424 140.579 58.9227 140.152 62.592C139.725 66.2613 139.128 70.016 138.36 73.856C138.531 74.0267 138.659 74.24 138.744 74.496C138.915 74.752 139.085 75.008 139.256 75.264C149.581 71.936 157.859 68.3947 164.088 64.64C170.403 60.8853 174.968 57.088 177.784 53.248C180.685 49.408 182.136 45.7387 182.136 42.24C182.136 38.5707 180.771 35.2853 178.04 32.384C175.309 29.4827 171.555 27.1787 166.776 25.472C161.997 23.7653 156.493 22.912 150.264 22.912C144.461 22.912 138.445 23.7227 132.216 25.344C126.584 26.88 121.208 29.1413 116.088 32.128C111.053 35.0293 106.531 38.272 102.52 41.856C98.5947 45.44 95.3947 48.9813 92.92 52.48C90.5307 55.9787 89.1653 59.0507 88.824 61.696C88.6533 63.5733 88.312 64.9387 87.8 65.792C87.3733 66.6453 86.9467 67.072 86.52 67.072C85.24 67.072 84.6 65.536 84.6 62.464C84.6 62.0373 84.6 61.6107 84.6 61.184C84.6853 60.7573 84.7707 60.3307 84.856 59.904C85.368 56.064 87.0747 52.224 89.976 48.384C92.9627 44.544 96.7173 40.96 101.24 37.632C105.848 34.2187 110.883 31.1893 116.344 28.544C121.805 25.8987 127.267 23.8507 132.728 22.4C136.227 21.4613 139.64 20.7787 142.968 20.352C146.381 19.9253 149.667 19.712 152.824 19.712C159.736 19.712 165.837 20.6507 171.128 22.528C176.419 24.4053 180.557 26.9653 183.544 30.208C186.531 33.3653 188.024 36.992 188.024 41.088C188.024 44.5013 186.744 48.128 184.184 51.968C181.624 55.808 177.528 59.648 171.896 63.488C166.264 67.328 158.84 71.04 149.624 74.624C147.747 75.3067 146.04 75.904 144.504 76.416C143.053 76.928 141.731 77.3973 140.536 77.824C142.243 80.896 144.461 84.48 147.192 88.576C149.923 92.672 152.824 96.8107 155.896 100.992C159.053 105.173 162.168 108.971 165.24 112.384C168.312 115.797 171.085 118.4 173.56 120.192C175.096 121.301 176.888 122.411 178.936 123.52C181.069 124.715 183.117 125.312 185.08 125.312C187.043 125.312 188.536 124.757 189.56 123.648C190.584 122.624 191.309 121.301 191.736 119.68C192.163 118.059 192.376 116.437 192.376 114.816C192.376 109.269 190.755 104.149 187.512 99.456C187.256 99.0293 187.128 98.7733 187.128 98.688C187.128 98.432 187.256 98.304 187.512 98.304C188.024 98.304 188.536 98.6453 189.048 99.328C190.755 101.376 192.12 103.765 193.144 106.496C194.168 109.227 194.68 111.957 194.68 114.688C194.68 118.869 193.443 122.368 190.968 125.184C188.579 128.085 185.293 129.536 181.112 129.536C176.76 129.536 172.707 128.341 168.952 125.952C165.283 123.563 161.869 120.405 158.712 116.48C155.555 112.555 152.696 108.331 150.136 103.808C147.576 99.2 145.315 94.6773 143.352 90.24C141.389 85.8027 139.683 81.8773 138.232 78.464L137.336 78.72C135.971 84.608 134.392 90.3253 132.6 95.872C130.893 101.419 129.101 106.453 127.224 110.976C124.92 116.608 121.933 121.856 118.264 126.72C114.68 131.669 110.755 135.637 106.488 138.624C102.307 141.611 98.168 143.104 94.072 143.104Z" fill="black"/>
</g>
<defs>
<clipPath id="clip0_14_2">
<rect width="225" height="185" fill="white"/>
</clipPath>
</defs>
</svg>
